<svg width="12" height="11" viewBox="0 0 12 11" fill="none" xmlns="http://www.w3.org/2000/svg">
<path d="M1.5 0.75C1.5 0.335156 1.16484 0 0.75 0C0.335156 0 0 0.335156 0 0.75V8.625C0 9.66094 0.839062 10.5 1.875 10.5H11.25C11.6648 10.5 12 10.1648 12 9.75C12 9.33516 11.6648 9 11.25 9H1.875C1.66875 9 1.5 8.83125 1.5 8.625V0.75ZM11.0297 2.77969C11.3227 2.48672 11.3227 2.01094 11.0297 1.71797C10.7367 1.425 10.2609 1.425 9.96797 1.71797L7.5 4.18828L6.15469 2.84297C5.86172 2.55 5.38594 2.55 5.09297 2.84297L2.46797 5.46797C2.175 5.76094 2.175 6.23672 2.46797 6.52969C2.76094 6.82266 3.23672 6.82266 3.52969 6.52969L5.625 4.43672L6.97031 5.78203C7.26328 6.075 7.73906 6.075 8.03203 5.78203L11.032 2.78203L11.0297 2.77969Z" fill="#9333EA"/>
</svg>
