<svg width="23" height="43" viewBox="0 0 23 43" fill="none" xmlns="http://www.w3.org/2000/svg">
<path d="M22.5 43H0V0H22.5V43Z" stroke="#E5E7EB"/>
<path d="M22.5 35.75H0V5.75H22.5V35.75Z" stroke="#E5E7EB"/>
<path d="M0.820312 11.3628C0.820312 8.26295 3.33327 5.75 6.43318 5.75H16.0641C19.164 5.75 21.677 8.26295 21.677 11.3628C21.677 13.3257 20.6694 15.0533 19.1432 16.0565C20.6694 17.0597 21.677 18.7872 21.677 20.7501C21.677 23.85 19.164 26.363 16.0641 26.363H15.9422C14.489 26.363 13.1647 25.8107 12.1679 24.9045V30.0762C12.1679 33.2174 9.58928 35.75 6.46342 35.75C3.37126 35.75 0.820312 33.2447 0.820312 30.1371C0.820312 28.1744 1.8278 26.4469 3.35386 25.4437C1.8278 24.4404 0.820312 22.7129 0.820312 20.7501C0.820312 18.7872 1.82789 17.0597 3.35405 16.0565C1.82789 15.0533 0.820312 13.3257 0.820312 11.3628ZM10.3294 16.9758H6.43318C4.34866 16.9758 2.65886 18.6656 2.65886 20.7501C2.65886 22.8266 4.33563 24.5114 6.40904 24.5244C6.41707 24.5243 6.4251 24.5243 6.43318 24.5243H10.3294V16.9758ZM12.1679 20.7501C12.1679 22.8346 13.8577 24.5244 15.9422 24.5244H16.0641C18.1487 24.5244 19.8384 22.8346 19.8384 20.7501C19.8384 18.6656 18.1487 16.9758 16.0641 16.9758H15.9422C13.8577 16.9758 12.1679 18.6656 12.1679 20.7501ZM6.43318 26.363C6.4251 26.363 6.41707 26.3629 6.40904 26.3629C4.33563 26.3759 2.65886 28.0607 2.65886 30.1371C2.65886 32.214 4.37124 33.9114 6.46342 33.9114C8.58932 33.9114 10.3294 32.1867 10.3294 30.0762V26.363H6.43318ZM6.43318 7.58854C4.34866 7.58854 2.65886 9.27836 2.65886 11.3628C2.65886 13.4473 4.34866 15.1371 6.43318 15.1371H10.3294V7.58854H6.43318ZM12.1679 15.1371H16.0641C18.1487 15.1371 19.8384 13.4473 19.8384 11.3628C19.8384 9.27836 18.1487 7.58854 16.0641 7.58854H12.1679V15.1371Z" fill="#2563EB"/>
</svg>
