<svg width="27" height="27" viewBox="0 0 27 27" fill="none" xmlns="http://www.w3.org/2000/svg">
<path d="M0 0V26.25H26.25V0H0ZM14.2852 20.4727C14.2852 23.0273 12.7852 24.1934 10.5996 24.1934C8.625 24.1934 7.48242 23.1738 6.89648 21.9375L8.90625 20.7246C9.29297 21.4102 9.64453 21.9902 10.4941 21.9902C11.3027 21.9902 11.8184 21.6738 11.8184 20.4375V12.0527H14.2852V20.4727ZM20.1211 24.1934C17.8301 24.1934 16.3477 23.1035 15.627 21.6738L17.6367 20.5137C18.1641 21.375 18.8555 22.0137 20.0684 22.0137C21.0879 22.0137 21.7441 21.5039 21.7441 20.7949C21.7441 19.9512 21.0762 19.6523 19.9453 19.1543L19.3301 18.8906C17.5488 18.1348 16.3711 17.1797 16.3711 15.1699C16.3711 13.3184 17.7832 11.9121 19.9805 11.9121C21.5508 11.9121 22.6758 12.457 23.4844 13.8867L21.5625 15.1172C21.1406 14.3613 20.6836 14.0625 19.9746 14.0625C19.2539 14.0625 18.7969 14.5195 18.7969 15.1172C18.7969 15.8555 19.2539 16.1543 20.3145 16.6172L20.9297 16.8809C23.0273 17.7773 24.2051 18.6973 24.2051 20.7598C24.2051 22.9746 22.459 24.1934 20.1211 24.1934Z" fill="#EAB308"/>
</svg>
