<svg width="18" height="18" viewBox="0 0 18 18" fill="none" xmlns="http://www.w3.org/2000/svg">
<path d="M16.25 0H1.24609C0.558594 0 0 0.566406 0 1.26172V16.2383C0 16.9336 0.558594 17.5 1.24609 17.5H16.25C16.9375 17.5 17.5 16.9336 17.5 16.2383V1.26172C17.5 0.566406 16.9375 0 16.25 0ZM5.28906 15H2.69531V6.64844H5.29297V15H5.28906ZM3.99219 5.50781C3.16016 5.50781 2.48828 4.83203 2.48828 4.00391C2.48828 3.17578 3.16016 2.5 3.99219 2.5C4.82031 2.5 5.49609 3.17578 5.49609 4.00391C5.49609 4.83594 4.82422 5.50781 3.99219 5.50781ZM15.0117 15H12.418V10.9375C12.418 9.96875 12.3984 8.72266 11.0703 8.72266C9.71875 8.72266 9.51172 9.77734 9.51172 10.8672V15H6.91797V6.64844H9.40625V7.78906H9.44141C9.78906 7.13281 10.6367 6.44141 11.8984 6.44141C14.5234 6.44141 15.0117 8.17188 15.0117 10.4219V15Z" fill="#1D4ED8"/>
</svg>
