<svg width="16" height="16" viewBox="0 0 16 16" fill="none" xmlns="http://www.w3.org/2000/svg">
<path d="M15.5656 0.175119C15.8813 0.393869 16.0469 0.771994 15.9875 1.15012L13.9875 14.1501C13.9406 14.4532 13.7563 14.7189 13.4875 14.8689C13.2188 15.0189 12.8969 15.0376 12.6125 14.9189L8.87502 13.3657L6.7344 15.6814C6.45627 15.9845 6.01877 16.0845 5.6344 15.9345C5.25002 15.7845 5.00002 15.4126 5.00002 15.0001V12.3876C5.00002 12.2626 5.0469 12.1439 5.13127 12.0532L10.3688 6.33762C10.55 6.14074 10.5438 5.83762 10.3563 5.65012C10.1688 5.46262 9.86564 5.45012 9.66877 5.62824L3.31252 11.2751L0.553145 9.89387C0.221895 9.72824 0.00939531 9.39699 2.031e-05 9.02824C-0.00935469 8.65949 0.184395 8.31574 0.503145 8.13137L14.5031 0.131369C14.8375 -0.0592555 15.25 -0.0405055 15.5656 0.175119Z" fill="white"/>
</svg>
