<svg width="53" height="60" viewBox="0 0 53 60" fill="none" xmlns="http://www.w3.org/2000/svg">
<path d="M43.4414 11.2617C40.5586 4.62891 33.9492 0 26.25 0C18.5508 0 11.9414 4.62891 9.05859 11.2617C7.13672 11.4258 5.625 13.0312 5.625 15V22.5C5.625 24.4688 7.13672 26.0742 9.05859 26.2383C11.9414 32.8711 18.5508 37.5 26.25 37.5C33.9492 37.5 40.5586 32.8711 43.4414 26.2383C45.3633 26.0742 46.875 24.4688 46.875 22.5V15C46.875 13.0312 45.3633 11.4258 43.4414 11.2617ZM39.375 16.875V18.75C39.375 24.9609 34.3359 30 28.125 30H24.375C18.1641 30 13.125 24.9609 13.125 18.75V16.875C13.125 13.7695 15.6445 11.25 18.75 11.25H33.75C36.8555 11.25 39.375 13.7695 39.375 16.875ZM22.1836 19.0664L21.4805 16.582C21.375 16.1953 21.0234 15.9375 20.625 15.9375C20.2266 15.9375 19.875 16.1953 19.7695 16.582L19.0664 19.0664L16.582 19.7695C16.1953 19.875 15.9375 20.2266 15.9375 20.625C15.9375 21.0234 16.1953 21.375 16.582 21.4805L19.0664 22.1836L19.7695 24.668C19.875 25.0547 20.2266 25.3125 20.625 25.3125C21.0234 25.3125 21.375 25.0547 21.4805 24.668L22.1836 22.1836L24.668 21.4805C25.0547 21.375 25.3125 21.0234 25.3125 20.625C25.3125 20.2266 25.0547 19.875 24.668 19.7695L22.1836 19.0664ZM13.207 37.0898C5.47266 40.1484 0 47.6953 0 56.5195C0 58.4414 1.55859 60 3.48047 60H15V52.5C15 50.4258 16.6758 48.75 18.75 48.75H33.75C35.8242 48.75 37.5 50.4258 37.5 52.5V60H49.0195C50.9414 60 52.5 58.4414 52.5 56.5195C52.5 47.6953 47.0273 40.1484 39.293 37.0898C35.6133 39.7031 31.1133 41.25 26.25 41.25C21.3867 41.25 16.8867 39.7031 13.207 37.0898ZM20.625 52.5C19.5938 52.5 18.75 53.3438 18.75 54.375V60H22.5V54.375C22.5 53.3438 21.6562 52.5 20.625 52.5ZM31.875 56.25C32.3723 56.25 32.8492 56.0525 33.2008 55.7008C33.5525 55.3492 33.75 54.8723 33.75 54.375C33.75 53.8777 33.5525 53.4008 33.2008 53.0492C32.8492 52.6975 32.3723 52.5 31.875 52.5C31.3777 52.5 30.9008 52.6975 30.5492 53.0492C30.1975 53.4008 30 53.8777 30 54.375C30 54.8723 30.1975 55.3492 30.5492 55.7008C30.9008 56.0525 31.3777 56.25 31.875 56.25Z" fill="#3B82F6"/>
</svg>
