<svg width="36" height="36" viewBox="0 0 36 36" fill="none" xmlns="http://www.w3.org/2000/svg">
<g clip-path="url(#clip0_1_475)">
<path d="M11.0109 27.0633L8.83823 24.8906C8.24057 24.293 8.02963 23.4281 8.29682 22.6266C8.50776 22.0008 8.78901 21.1851 9.12651 20.25H1.68745C1.08276 20.25 0.520259 19.9266 0.217915 19.3992C-0.0844289 18.8719 -0.0773976 18.225 0.231977 17.7047L3.92338 11.482C4.83745 9.94218 6.48979 8.99999 8.27573 8.99999H14.0624C14.2312 8.71874 14.3999 8.45858 14.5687 8.20546C20.3273 -0.28829 28.9054 -0.56954 34.0242 0.372648C34.8398 0.520304 35.4726 1.16015 35.6273 1.97577C36.5695 7.10155 36.2812 15.6726 27.7945 21.4312C27.5484 21.6 27.2812 21.7687 26.9999 21.9375V27.7242C26.9999 29.5101 26.0578 31.1695 24.5179 32.0766L18.2953 35.768C17.7749 36.0773 17.1281 36.0844 16.6007 35.782C16.0734 35.4797 15.7499 34.9242 15.7499 34.3125V26.775C14.7585 27.1195 13.8937 27.4008 13.2398 27.6117C12.4523 27.8648 11.5945 27.6469 11.0039 27.0633H11.0109ZM26.9999 11.8125C27.7459 11.8125 28.4612 11.5162 28.9887 10.9887C29.5161 10.4613 29.8124 9.74591 29.8124 8.99999C29.8124 8.25407 29.5161 7.5387 28.9887 7.01125C28.4612 6.48381 27.7459 6.18749 26.9999 6.18749C26.254 6.18749 25.5387 6.48381 25.0112 7.01125C24.4838 7.5387 24.1874 8.25407 24.1874 8.99999C24.1874 9.74591 24.4838 10.4613 25.0112 10.9887C25.5387 11.5162 26.254 11.8125 26.9999 11.8125Z" fill="white"/>
</g>
<defs>
<clipPath id="clip0_1_475">
<path d="M0 0H36V36H0V0Z" fill="white"/>
</clipPath>
</defs>
</svg>
