<svg width="38" height="30" viewBox="0 0 38 30" fill="none" xmlns="http://www.w3.org/2000/svg">
<path d="M23.0142 0.0703101C22.0181 -0.216799 20.981 0.363279 20.6938 1.35937L13.1938 27.6094C12.9067 28.6055 13.4868 29.6426 14.4829 29.9297C15.479 30.2168 16.5161 29.6367 16.8032 28.6406L24.3032 2.39062C24.5903 1.39453 24.0103 0.357419 23.0142 0.0703101ZM27.7368 7.10742C27.0044 7.83984 27.0044 9.02929 27.7368 9.76172L32.9692 15L27.731 20.2383C26.9985 20.9707 26.9985 22.1602 27.731 22.8926C28.4634 23.625 29.6528 23.625 30.3853 22.8926L36.9478 16.3301C37.6802 15.5977 37.6802 14.4082 36.9478 13.6758L30.3853 7.11328C29.6528 6.38086 28.4634 6.38086 27.731 7.11328L27.7368 7.10742ZM9.76611 7.10742C9.03369 6.375 7.84424 6.375 7.11182 7.10742L0.549316 13.6699C-0.183105 14.4023 -0.183105 15.5918 0.549316 16.3242L7.11182 22.8867C7.84424 23.6191 9.03369 23.6191 9.76611 22.8867C10.4985 22.1543 10.4985 20.9648 9.76611 20.2324L4.52783 15L9.76611 9.76172C10.4985 9.02929 10.4985 7.83984 9.76611 7.10742Z" fill="#EC4899"/>
</svg>
